<svg xmlns="http://www.w3.org/2000/svg" viewBox="0 0 500 500"><g id="freepik--background-complete--inject-2"><polygon points="107 219.5 124.52 199.42 130.28 226.18 151.26 225.89 136.22 249.62 158.25 263.11 130.97 262.35 123.14 285.76 103.84 266.27 81.33 281.26 83.42 257.54 59.31 253.25 76.44 241.51 67.56 221.63 87.14 225.71 90.12 199.61 107 219.5" style="fill:#fff"></polygon><path d="M107,219.5s-.38-.42-1.11-1.28l-3.28-3.82L90,199.7l.22-.07c-.81,7.21-1.81,16-2.94,26.1l0,.19-.19,0-19.59-4,.23-.28,8.9,19.88.07.16-.15.11L59.44,253.44l-.09-.42,24.12,4.28.22,0,0,.22c-.66,7.54-1.36,15.54-2.08,23.72l-.4-.24,22.51-15,.18-.12.15.15,6.35,6.42,13,13.06-.43.1q4-11.94,7.83-23.4l.06-.18H131l27.27.76-.13.45-22-13.5-.2-.12.12-.19,15.06-23.71.18.31-21,.26h-.14l0-.14q-3.33-15.66-5.7-26.77l.22.06L111.53,214.4c-1.48,1.68-2.61,3-3.38,3.82S107,219.5,107,219.5s.39-.47,1.15-1.34l3.35-3.89,12.92-14.93.17-.2.06.25q2.4,11.09,5.8,26.76l-.17-.14,21-.32h.38l-.21.31-15,23.74-.08-.32,22,13.48.78.47-.91,0L131,262.61l.25-.18-7.82,23.41-.13.4-.3-.3L110,272.87l-6.35-6.41.33,0-22.51,15-.45.3,0-.54c.72-8.17,1.43-16.17,2.1-23.71l.2.27-24.11-4.31-.57-.1.48-.33,17.13-11.72-.08.28-8.86-19.9-.16-.36.39.08,19.57,4.1-.21.16c1.17-10.06,2.2-18.88,3-26.09l0-.3.19.23,12.42,14.74,3.25,3.88C106.63,219,107,219.5,107,219.5Z" style="fill:#e0e0e0"></path><path d="M100.31,231.18l.54,12.55a2,2,0,0,0,1.87,1.94h0a2,2,0,0,0,2.18-1.76l1.65-12.58a1.6,1.6,0,0,0-1.58-1.8l-3.06,0A1.6,1.6,0,0,0,100.31,231.18Z" style="fill:#e0e0e0"></path><path d="M105.9,252.79a3.06,3.06,0,1,1-1.86-3.91A3,3,0,0,1,105.9,252.79Z" style="fill:#e0e0e0"></path><path d="M110.87,231.39l.54,12.55a2,2,0,0,0,1.87,1.94h0a2,2,0,0,0,2.18-1.76l1.65-12.57a1.6,1.6,0,0,0-1.57-1.81l-3.06,0A1.6,1.6,0,0,0,110.87,231.39Z" style="fill:#e0e0e0"></path><path d="M116.47,253a3.06,3.06,0,1,1-1.87-3.91A3.06,3.06,0,0,1,116.47,253Z" style="fill:#e0e0e0"></path><polygon points="408.85 201.4 398.38 187.07 393.02 204.5 379.12 203.11 387.74 219.71 372.36 227.4 390.5 228.46 394.35 244.43 408.27 232.61 422.35 243.84 422.32 227.99 438.56 226.52 427.87 217.75 434.9 205.07 421.68 206.65 421.19 189.17 408.85 201.4" style="fill:#fff"></polygon><path d="M408.85,201.4s.28-.3.82-.84,1.34-1.36,2.37-2.4l9.06-9.08.2-.21v.3c.15,4.83.33,10.74.54,17.48l-.19-.17,13.22-1.61.39-.05-.19.34-7,12.7-.06-.28,10.7,8.75.45.37-.58.05-16.24,1.48.23-.24c0,5,0,10.38,0,15.85v.53l-.42-.33-14.08-11.22h.33l-4.58,3.89-9.34,7.93-.32.27-.1-.4c-1.31-5.44-2.59-10.78-3.85-16l.23.19-18.14-1.07-.91,0,.82-.41,15.39-7.67-.1.31Q383,211,378.94,203.2l-.17-.33.37,0,13.9,1.42-.18.12L398.25,187l.08-.25.15.21,7.69,10.65,2,2.78c.45.63.68,1,.68,1s-.23-.29-.69-.9l-2-2.72-7.86-10.63.23,0-5.31,17.44,0,.14H393l-13.91-1.37.2-.29q4,7.74,8.64,16.59l.11.2-.21.1-15.37,7.71-.1-.46,18.14,1.05h.19l.05.18c1.25,5.2,2.54,10.54,3.85,16l-.42-.13,9.34-7.93,4.58-3.9.17-.13.16.13,14.08,11.23-.42.2c0-5.47,0-10.81,0-15.85v-.23l.23,0,16.24-1.46-.13.42-10.68-8.78-.14-.11.09-.16c2.47-4.46,4.84-8.71,7.05-12.68l.19.3-13.22,1.56-.19,0v-.19c-.17-6.74-.32-12.65-.44-17.49l.22.09-9.22,9-2.4,2.34Z" style="fill:#e0e0e0"></path><path d="M412.62,209.53l-1.07,8.3a1.36,1.36,0,0,1-1.36,1.18h0a1.36,1.36,0,0,1-1.34-1.3l-.37-8.43a1.06,1.06,0,0,1,1.14-1.11l2,.16A1.06,1.06,0,0,1,412.62,209.53Z" style="fill:#e0e0e0"></path><path d="M407.68,223.55a2,2,0,1,0,1.45-2.49A2,2,0,0,0,407.68,223.55Z" style="fill:#e0e0e0"></path><path d="M405.6,209.07l-1.07,8.29a1.35,1.35,0,0,1-1.36,1.18h0a1.34,1.34,0,0,1-1.34-1.29l-.37-8.44a1.06,1.06,0,0,1,1.14-1.1l2,.16A1.06,1.06,0,0,1,405.6,209.07Z" style="fill:#e0e0e0"></path><path d="M400.66,223.09a2,2,0,1,0,1.46-2.49A2,2,0,0,0,400.66,223.09Z" style="fill:#e0e0e0"></path><ellipse cx="262.01" cy="475.94" rx="129.02" ry="7.35" style="fill:#e0e0e0"></ellipse><rect x="245.87" y="33.76" width="13.07" height="20.52" transform="translate(-0.05 0.29) rotate(-0.07)" style="fill:#e0e0e0"></rect><path d="M265.94,39.88l-26.91,0,0-22.12c9.42-2.34,18.42-2.5,26.92,0Z" style="fill:#ebebeb"></path><path d="M266.23,17.85a4.85,4.85,0,0,1-1,.5,24.9,24.9,0,0,1-2.83,1A31.64,31.64,0,0,1,258,20.45a36.75,36.75,0,0,1-5.47.48,37.15,37.15,0,0,1-5.48-.41,33.91,33.91,0,0,1-4.38-1,23.5,23.5,0,0,1-2.84-1,4.56,4.56,0,0,1-1-.48c0-.08,1.48.53,3.93,1.19a39.78,39.78,0,0,0,4.35.89,39.64,39.64,0,0,0,5.42.36A40.92,40.92,0,0,0,258,20a38,38,0,0,0,4.33-.94C264.75,18.4,266.2,17.77,266.23,17.85Z" style="fill:#e0e0e0"></path><path d="M247.92,39.84a94.66,94.66,0,0,1-.24-9.48c0-5.24.09-9.49.22-9.49s.23,4.25.24,9.49S248.05,39.84,247.92,39.84Z" style="fill:#e0e0e0"></path><path d="M253,40c-.13,0-.24-4.27-.24-9.53s.09-9.53.22-9.53.23,4.26.24,9.53S253.17,40,253,40Z" style="fill:#e0e0e0"></path><path d="M258.16,39.87c-.13,0-.23-4.26-.24-9.52s.09-9.53.22-9.53.23,4.26.24,9.53S258.29,39.87,258.16,39.87Z" style="fill:#e0e0e0"></path><path d="M262.42,39.87c-.12,0-.23-4.61-.24-10.3s.09-10.3.22-10.3.23,4.61.24,10.3S262.55,39.87,262.42,39.87Z" style="fill:#e0e0e0"></path><path d="M243.08,39.76c-.13,0-.24-4.61-.24-10.3s.09-10.3.21-10.3.24,4.61.24,10.3S243.2,39.76,243.08,39.76Z" style="fill:#e0e0e0"></path><polygon points="322.72 77.21 316.18 70.34 326.83 60.08 333.37 66.95 322.72 77.21" style="fill:#e0e0e0"></polygon><path d="M333.69,73.7,320.22,59.55,331.7,48.49a37.29,37.29,0,0,1,13.47,14.14Z" style="fill:#ebebeb"></path><polygon points="178.5 77.25 171.42 83.55 161.65 72.44 168.73 66.14 178.5 77.25" style="fill:#e0e0e0"></polygon><path d="M175.44,66.08l-14.57,13-10.53-12a37.15,37.15,0,0,1,14.57-13Z" style="fill:#ebebeb"></path><ellipse cx="250" cy="153.22" rx="107.72" ry="108.41" transform="matrix(1, 0, 0, 1, -0.18, 0.29)" style="fill:#ebebeb"></ellipse><ellipse cx="250" cy="153.22" rx="98.96" ry="99.6" transform="translate(-0.17 0.27) rotate(-0.06)" style="fill:#fff"></ellipse><path d="M250.12,253.16c-54.76.06-99.35-44.72-99.42-99.83s44.43-100,99.18-100.05S349.23,98,349.3,153.1,304.87,253.1,250.12,253.16ZM249.88,54c-54.37.06-98.56,44.64-98.5,99.37s44.36,99.21,98.74,99.15,98.56-44.64,98.5-99.38S304.26,53.89,249.88,54Z" style="fill:#e0e0e0"></path><polygon points="242.96 155.02 198.4 120.27 250.56 144.4 252.1 153.59 242.96 155.02" style="fill:#ebebeb"></polygon><polygon points="198.4 120.27 244.92 147.72 250.56 144.4 198.4 120.27" style="fill:#e0e0e0"></polygon><path d="M252.12,144.42a9.33,9.33,0,1,1-9.25,9.33A9.28,9.28,0,0,1,252.12,144.42Z" style="fill:#fafafa"></path><path d="M252.12,144.42a19.08,19.08,0,0,0-2.24.38,9.26,9.26,0,0,0-5,3.41,9.12,9.12,0,0,0-1.68,3.86,9.36,9.36,0,0,0,.42,4.79,8.87,8.87,0,0,0,1.24,2.3,8.53,8.53,0,0,0,1.92,1.92,9.16,9.16,0,0,0,5.35,1.76,9.06,9.06,0,0,0,5.34-1.78,8.53,8.53,0,0,0,1.92-1.92,8.4,8.4,0,0,0,1.23-2.3,9.25,9.25,0,0,0,.41-4.79,9.21,9.21,0,0,0-6.68-7.25,19.88,19.88,0,0,0-2.24-.38,7,7,0,0,1,2.28.2,9.23,9.23,0,0,1,5.21,3.37,9.39,9.39,0,0,1,1.8,4,9.61,9.61,0,0,1-.38,5,8.81,8.81,0,0,1-1.28,2.42,9,9,0,0,1-2,2,9.35,9.35,0,0,1-5.6,1.86,9.46,9.46,0,0,1-5.61-1.85,9,9,0,0,1-2-2,8.81,8.81,0,0,1-1.28-2.42,9.61,9.61,0,0,1-.4-5,9.5,9.5,0,0,1,1.79-4,9.2,9.2,0,0,1,5.21-3.38A6.91,6.91,0,0,1,252.12,144.42Z" style="fill:#e0e0e0"></path><path d="M252.12,146.8a6.94,6.94,0,1,1-6.88,6.95A6.92,6.92,0,0,1,252.12,146.8Z" style="fill:#e0e0e0"></path><path d="M251.67,151s-2-60,.78-72.69C252.45,78.32,257.1,114.7,251.67,151Z" style="fill:#e0e0e0"></path><path d="M246.39,245.3h-.12l.25-7.48h.22Zm37.12-6.11-2.79-6.95.21-.08,2.68,7Zm-73.65-3.49-.11-.06,3.3-6.71.18.09ZM315,218.35l-5.31-5.24.14-.14,5.26,5.29ZM180.4,212l-.11-.14,5.76-4.74.1.12Zm155.07-25.58-7-2.6.07-.2,6.95,2.69ZM163,178.27l0-.19,7.19-1.93,0,.13Zm170.72-29v-.12l7.42-.46,0,.21Zm0-.13V149l7.42-.46v.17Zm-165.59-7.69-7.36-1.11,0-.17,7.35,1.12Zm156.44-26-.07-.13,6.61-3.45.08.15Zm-144.24-6.67-6.26-4,.08-.13,6.27,4ZM302.65,88.57l-.13-.11,4.64-5.85.13.1Zm-98-4.56-4.08-6.26.11-.07,4.14,6.22Zm67-11.13-.13,0,1.85-7.26.19,0Zm-34.75-1.59-1.22-7.39.17,0,1.21,7.39Z" style="fill:#e0e0e0"></path><path d="M246.39,245.55h-.13a.24.24,0,0,1-.24-.26l.25-7.48a.37.37,0,0,1,.08-.18.33.33,0,0,1,.19-.06h.21a.23.23,0,0,1,.17.08.24.24,0,0,1,.07.18l-.35,7.48A.26.26,0,0,1,246.39,245.55Zm37.12-6.11a.25.25,0,0,1-.23-.16l-2.79-6.94a.27.27,0,0,1,0-.2.21.21,0,0,1,.13-.13l.21-.08a.21.21,0,0,1,.19,0,.32.32,0,0,1,.14.14l2.68,7a.25.25,0,0,1-.15.32l-.1,0ZM209.86,236a.27.27,0,0,1-.12,0l-.11-.06a.25.25,0,0,1-.11-.33l3.3-6.71a.27.27,0,0,1,.15-.13.25.25,0,0,1,.19,0l.18.09a.24.24,0,0,1,.11.34l-3.37,6.67a.25.25,0,0,1-.14.13ZM315,218.6a.22.22,0,0,1-.17-.07l-5.32-5.24a.25.25,0,0,1,0-.36l.14-.14a.24.24,0,0,1,.18-.07h0a.22.22,0,0,1,.17.07l5.27,5.29a.24.24,0,0,1,0,.35l-.09.1A.29.29,0,0,1,315,218.6ZM180.4,212.24h0a.26.26,0,0,1-.17-.09l-.11-.14a.25.25,0,0,1,0-.35l5.77-4.74a.23.23,0,0,1,.18,0,.24.24,0,0,1,.17.09l.1.12a.25.25,0,0,1,0,.35l-5.75,4.75A.23.23,0,0,1,180.4,212.24Zm155.07-25.58h-.09l-7-2.61a.25.25,0,0,1-.14-.32l.07-.19a.2.2,0,0,1,.13-.14.25.25,0,0,1,.19,0l7,2.68a.25.25,0,0,1,.15.32l-.05.12A.24.24,0,0,1,335.47,186.66ZM163,178.52l-.12,0a.26.26,0,0,1-.12-.15l-.05-.19a.24.24,0,0,1,0-.19.29.29,0,0,1,.15-.12l7.19-1.93a.25.25,0,0,1,.31.18l0,.12a.25.25,0,0,1-.17.31l-7.17,2Zm170.72-29a.25.25,0,0,1-.25-.24V149a.25.25,0,0,1,.23-.27l7.43-.46a.24.24,0,0,1,.26.24v.39a.2.2,0,0,1-.06.18.23.23,0,0,1-.17.08l-7.43.37Zm-165.59-7.82h0l-7.36-1.12a.24.24,0,0,1-.21-.28l0-.17a.23.23,0,0,1,.1-.16.24.24,0,0,1,.18-.05l7.36,1.12a.25.25,0,0,1,.21.29l0,.16a.27.27,0,0,1-.1.16A.3.3,0,0,1,168.17,141.72Zm156.44-26h-.07a.23.23,0,0,1-.15-.12l-.07-.14a.25.25,0,0,1,.1-.34l6.61-3.44a.25.25,0,0,1,.19,0,.23.23,0,0,1,.15.12l.08.16a.26.26,0,0,1-.11.34l-6.61,3.43Zm-144.24-6.67a.23.23,0,0,1-.14,0L174,105a.25.25,0,0,1-.08-.34l.09-.13a.21.21,0,0,1,.15-.11.24.24,0,0,1,.19,0l6.28,4a.26.26,0,0,1,.08.35l-.1.15a.31.31,0,0,1-.16.11ZM302.65,88.82a.25.25,0,0,1-.16-.06l-.12-.1a.24.24,0,0,1,0-.35L307,82.45a.26.26,0,0,1,.17-.09.23.23,0,0,1,.18,0l.13.11a.25.25,0,0,1,0,.35l-4.64,5.85a.24.24,0,0,1-.17.09Zm-98-4.56h-.05a.29.29,0,0,1-.16-.11l-4.08-6.26a.26.26,0,0,1,.07-.35l.11-.07a.25.25,0,0,1,.35.07l4.14,6.23a.25.25,0,0,1-.08.34l-.16.11A.23.23,0,0,1,204.68,84.26Zm67-11.13h-.06l-.14,0a.26.26,0,0,1-.18-.31l1.86-7.25a.26.26,0,0,1,.12-.15.21.21,0,0,1,.19,0l.18.05a.26.26,0,0,1,.15.12.28.28,0,0,1,0,.18L271.94,73A.25.25,0,0,1,271.69,73.13Zm-34.75-1.59a.3.3,0,0,1-.15-.05.25.25,0,0,1-.1-.16l-1.21-7.39a.23.23,0,0,1,0-.18.29.29,0,0,1,.16-.11l.17,0a.27.27,0,0,1,.19,0,.27.27,0,0,1,.1.16l1.21,7.39a.25.25,0,0,1-.21.29l-.16,0Z" style="fill:#e0e0e0"></path></g><g id="freepik--Floor--inject-2"><path d="M467.18,461.75c0,.14-97.24.26-217.17.26s-217.19-.12-217.19-.26,97.22-.26,217.19-.26S467.18,461.61,467.18,461.75Z" style="fill:#263238"></path></g><g id="freepik--Plant--inject-2"><path d="M383.71,436.42c-.07-4.66,3.2-8.94,7.38-11s9.1-2.12,13.66-1.23a.86.86,0,0,1,.66.36.82.82,0,0,1-.07.68,17.56,17.56,0,0,1-8.64,9.16c-3.88,1.84-8.88,3.27-13,2" style="fill:#455a64"></path><path d="M396.84,428.06a1.7,1.7,0,0,0-.44.11c-.27.09-.69.2-1.2.4a30.71,30.71,0,0,0-4.25,2,33.11,33.11,0,0,0-16.7,24.81A30.51,30.51,0,0,0,374,460c0,.55.06,1,.08,1.27a1.13,1.13,0,0,0,.07.44,14.38,14.38,0,0,0,0-1.71,40,40,0,0,1,.4-4.63,34.07,34.07,0,0,1,16.52-24.54,37.16,37.16,0,0,1,4.14-2.11A12.9,12.9,0,0,0,396.84,428.06Z" style="fill:#263238"></path><path d="M381.07,444.85c1.75-3.44,5.8-5.3,9.65-5.18a18,18,0,0,1,10.47,4.38c.17.14.35.3.34.52a.7.7,0,0,1-.31.47,14.53,14.53,0,0,1-9.87,3.36c-3.55-.15-7.76-1-10.28-3.55" style="fill:#455a64"></path><path d="M375.51,443.57c-2.75-1.94-3.86-5.69-3.27-9a15.84,15.84,0,0,1,5.12-8.53c.14-.12.31-.26.49-.23s.28.19.37.33a12.74,12.74,0,0,1,1.67,9c-.58,3.06-1.88,6.6-4.38,8.46" style="fill:#455a64"></path><path d="M391.05,443.46a7.58,7.58,0,0,0-2.28-.36,17.07,17.07,0,0,0-10.57,3,7.17,7.17,0,0,0-1.75,1.5c.1.16,2.79-2.22,6.93-3.38S391.05,443.65,391.05,443.46Z" style="fill:#263238"></path><path d="M376.1,434.17a7.91,7.91,0,0,0-.49,2.17,38.37,38.37,0,0,0-.41,5.34,39.43,39.43,0,0,0,.3,5.35,8.35,8.35,0,0,0,.44,2.17c.16,0-.27-3.37-.22-7.52S376.25,434.2,376.1,434.17Z" style="fill:#263238"></path></g><g id="freepik--Lines--inject-2"><path d="M439.86,274.75c0,.15-13.9.27-31.05.27s-31-.12-31-.27,13.9-.26,31-.26S439.86,274.61,439.86,274.75Z" style="fill:#263238"></path><path d="M427.43,285.74c0,.15-13.9.26-31.05.26s-31-.11-31-.26,13.9-.26,31-.26S427.43,285.6,427.43,285.74Z" style="fill:#263238"></path><path d="M268.2,407.7c0,.15-14.74.26-32.92.26s-32.92-.11-32.92-.26,14.73-.26,32.92-.26S268.2,407.56,268.2,407.7Z" style="fill:#263238"></path><path d="M255,419.36c0,.14-14.74.26-32.92.26s-32.93-.12-32.93-.26,14.74-.26,32.93-.26S255,419.21,255,419.36Z" style="fill:#263238"></path></g><g id="freepik--speech-bubble--inject-2"><polygon points="373.93 111.25 359.4 91.44 352.03 115.57 332.78 113.67 344.74 136.63 323.46 147.3 348.57 148.73 353.93 170.84 373.18 154.45 392.68 169.97 392.61 148.03 415.09 145.97 400.28 133.85 409.99 116.28 391.69 118.5 390.98 94.3 373.93 111.25" style="fill:#fff"></polygon><path d="M373.92,111.25l1.13-1.15,3.29-3.32,12.55-12.57.21-.21v.3c.21,6.69.46,14.86.75,24.19l-.19-.16,18.3-2.24.38,0-.19.34c-3,5.51-6.28,11.41-9.69,17.58l-.05-.28,14.82,12.11.45.36-.58,0-22.48,2.08.23-.25c0,7,.05,14.37.08,21.94v.53l-.42-.33L373,154.66h.33l-6.33,5.4q-6.54,5.55-12.91,11l-.32.27-.1-.41q-2.74-11.28-5.36-22.11l.23.2-25.11-1.45-.91,0,.82-.41,21.28-10.65-.1.3-11.93-23-.18-.33.38,0L352,115.39l-.18.13q4.33-14.11,7.42-24.12l.08-.24.15.2,10.7,14.73,2.77,3.83c.63.87.94,1.33.94,1.33s-.32-.41-.95-1.26l-2.8-3.77L359.3,91.52l.23,0q-3,10-7.33,24.14l-.05.14H352l-19.25-1.88.2-.3c3.72,7.14,7.73,14.81,12,23l.11.21-.21.1-21.27,10.68-.1-.46,25.11,1.43h.19l0,.18q2.63,10.82,5.37,22.11l-.42-.14,12.91-11,6.34-5.39.16-.14.17.13,19.5,15.52-.42.2c0-7.56,0-15-.06-21.94v-.23l.23,0,22.48-2.05-.13.42L400.14,134l-.14-.12.09-.16,9.72-17.56.2.29-18.3,2.19-.19,0v-.2c-.25-9.33-.48-17.51-.66-24.19l.22.08-12.71,12.53c-1.44,1.42-2.55,2.5-3.31,3.24S373.92,111.25,373.92,111.25Z" style="fill:#263238"></path><path d="M379.16,122.5,377.68,134a1.88,1.88,0,0,1-1.87,1.64h0a1.88,1.88,0,0,1-1.86-1.79l-.53-11.68a1.47,1.47,0,0,1,1.59-1.53l2.81.22A1.47,1.47,0,0,1,379.16,122.5Z" style="fill:#263238"></path><path d="M372.34,141.91a2.82,2.82,0,1,0,2-3.44A2.8,2.8,0,0,0,372.34,141.91Z" style="fill:#263238"></path><path d="M369.44,121.87,368,133.35A1.89,1.89,0,0,1,366.1,135h0a1.89,1.89,0,0,1-1.87-1.79l-.53-11.68a1.48,1.48,0,0,1,1.59-1.53l2.81.22A1.47,1.47,0,0,1,369.44,121.87Z" style="fill:#263238"></path><path d="M362.62,141.28a2.82,2.82,0,1,0,2-3.44A2.81,2.81,0,0,0,362.62,141.28Z" style="fill:#263238"></path></g><g id="freepik--Character--inject-2"><path d="M282,191.16l8.2-48.15c2.43-11.91-2.48-23.25-14.45-25.35l-1.12-.13a21.74,21.74,0,0,0-23.82,17.36c-2,10.33-4.18,21.78-4.75,27.38C244.9,173.88,256.28,177,256.28,177s-1,7-1.57,10.4l5.88,6.66h0Z" style="fill:#ffbf9d"></path><path d="M256.28,177a28.23,28.23,0,0,0,15.6-2.71s-4.63,8.29-16.08,5.91Z" style="fill:#ff9a6c"></path><path d="M253,146.06a1.68,1.68,0,0,0,1.4,1.86,1.6,1.6,0,0,0,1.88-1.3,1.65,1.65,0,0,0-1.4-1.85A1.59,1.59,0,0,0,253,146.06Z" style="fill:#263238"></path><path d="M252.73,140.29c.18.24,1.54-.54,3.32-.33s3,1.25,3.2,1-.06-.5-.58-1a4.58,4.58,0,0,0-2.53-1.11,4.4,4.4,0,0,0-2.68.54C252.87,139.81,252.64,140.18,252.73,140.29Z" style="fill:#263238"></path><path d="M269,147.66a1.68,1.68,0,0,0,1.4,1.86,1.6,1.6,0,0,0,1.88-1.3,1.66,1.66,0,0,0-1.4-1.85A1.58,1.58,0,0,0,269,147.66Z" style="fill:#263238"></path><path d="M270.13,142.72c.18.24,1.55-.54,3.32-.33s3,1.25,3.21,1.06-.06-.5-.58-1a4.65,4.65,0,0,0-2.53-1.12,4.38,4.38,0,0,0-2.68.54C270.28,142.24,270,142.61,270.13,142.72Z" style="fill:#263238"></path><path d="M262.16,155.66a12.18,12.18,0,0,0-2.83-.85c-.45-.1-.87-.24-.91-.56a2.32,2.32,0,0,1,.46-1.31l1.75-3.31c2.43-4.71,4.25-8.61,4.06-8.71s-2.32,3.65-4.76,8.36l-1.69,3.34a2.66,2.66,0,0,0-.44,1.75,1.13,1.13,0,0,0,.67.75,2.87,2.87,0,0,0,.76.2A10.82,10.82,0,0,0,262.16,155.66Z" style="fill:#263238"></path><path d="M271.36,137c.18.48,2,.25,4.07.5s3.81.83,4.09.39c.12-.21-.17-.67-.86-1.14a7.1,7.1,0,0,0-6.21-.68C271.68,136.38,271.29,136.77,271.36,137Z" style="fill:#263238"></path><path d="M253.42,134.58c.31.46,1.82.27,3.55.52s3.16.77,3.57.4c.18-.18,0-.62-.57-1.1a5.75,5.75,0,0,0-2.78-1.11,5.55,5.55,0,0,0-2.95.37C253.56,134,253.29,134.36,253.42,134.58Z" style="fill:#263238"></path><path d="M288.3,151.48c.21-.06,8.24-1.43,7.07,6.46s-8.85,5.09-8.84,4.86S288.3,151.48,288.3,151.48Z" style="fill:#ffbf9d"></path><path d="M289.39,160.17s.12.11.34.26a1.43,1.43,0,0,0,1,.17c.88-.18,1.78-1.4,2-2.82a4.58,4.58,0,0,0-.09-2,1.59,1.59,0,0,0-.88-1.2.71.71,0,0,0-.87.25c-.14.21-.11.37-.15.38s-.15-.16,0-.47a.8.8,0,0,1,.38-.45,1,1,0,0,1,.79-.09,2,2,0,0,1,1.26,1.44,4.74,4.74,0,0,1,.15,2.27c-.29,1.58-1.32,3-2.51,3.11a1.5,1.5,0,0,1-1.23-.4C289.37,160.36,289.36,160.18,289.39,160.17Z" style="fill:#ff9a6c"></path><path d="M236.58,122a1.88,1.88,0,0,1,1-1,5.73,5.73,0,0,1,3,0,16.84,16.84,0,0,0,7.49-.76,8.55,8.55,0,0,1-1.9-1.8,5,5,0,0,1-.71-5.14,1.11,1.11,0,0,1,.73-.66c.54-.09.91.48,1.21.94a4.33,4.33,0,0,0,3.77,2.28,7,7,0,0,0,3.13-.45l.12-.09c.47-.37.93-.71,1.38-1h0c3.4-2.51,6.25-4.18,9-4.85,4.08-1,10.62-.68,14.48,1s7,5.43,7,9.62c2.53-1.57,5.91-1.06,8.5.44l.07,0c2.9,1.54,4.16,5,4.61,8.27l.06.54a12.34,12.34,0,0,0,3.53,4.62c.27.21.58.47.56.82s-.34.58-.64.74a6.27,6.27,0,0,1-2.62.66,14.46,14.46,0,0,0,.69,2.3c.26.63.57,1.39.18,2a1.31,1.31,0,0,1-1.43.39,3.83,3.83,0,0,1-1.33-.85l.66,2.59a7.22,7.22,0,0,1-3.29-.7c-1.08,2.82-2.35,8.14-3.39,10-2.1-.27-2.58-.57-3.69-.37-1.43.25-1.26,2.75-2.94,1.8-.86-.48-1.75-4.12-1.91-5.09a45.5,45.5,0,0,1,.83-19.36,14.52,14.52,0,0,0-4-3.89l.12.15c-3.07-1.6-6.56-3.23-9.84-2.17-2.55.83-4.3,3.09-6.37,4.8a16.67,16.67,0,0,1-13.06,4.15c-1,3.42-1.93,9.1-2.58,12.33l-1.82-6.92v0c-.17-.41-.29-.83-.42-1.24l0-.12v0a19,19,0,0,0-.64-2l0,0a2.05,2.05,0,0,1-2.57-3.15,4.68,4.68,0,0,1,1.13-.84,3.25,3.25,0,0,1-3.18.34,2.54,2.54,0,0,1-1.42-2.75,2.15,2.15,0,0,1,1.53-1.53,7.35,7.35,0,0,1-4-1.52A2.11,2.11,0,0,1,236.58,122Z" style="fill:#263238"></path><path d="M282.51,120.81a10.89,10.89,0,0,1,1,1.23,8.39,8.39,0,0,1,1.22,4.09,14.62,14.62,0,0,1-.14,3c-.15,1.07-.4,2.2-.66,3.38a32.34,32.34,0,0,0-.64,3.78,12.6,12.6,0,0,0,0,2,4.27,4.27,0,0,0,.53,2.06,1.74,1.74,0,0,0,1.55.78,2.61,2.61,0,0,0,1.59-.61,6,6,0,0,0,1.54-2.78h-.24a9.78,9.78,0,0,0,1,2.62,3.48,3.48,0,0,0,2.07,1.56,2.29,2.29,0,0,0,1.22,0,2,2,0,0,0,1.32-1.67,1.48,1.48,0,0,0-.24-.95l-.14.09a7.58,7.58,0,0,0,2.21,2.23,8.34,8.34,0,0,0,.73.41l.26.11s-.08-.06-.24-.15-.4-.24-.7-.45a7.69,7.69,0,0,1-2.12-2.24l-.14.09a1.5,1.5,0,0,1-.17,1.73,1.66,1.66,0,0,1-.84.6,2,2,0,0,1-1.1,0,3.26,3.26,0,0,1-1.92-1.47,9.55,9.55,0,0,1-1-2.56l-.12-.4-.13.39a5.89,5.89,0,0,1-1.47,2.65,2.3,2.3,0,0,1-1.42.55,1.49,1.49,0,0,1-1.32-.67,4,4,0,0,1-.49-1.92,13.34,13.34,0,0,1,0-2,30.71,30.71,0,0,1,.62-3.74c.25-1.19.49-2.33.64-3.41a15.6,15.6,0,0,0,.1-3A8.19,8.19,0,0,0,283.6,122,4.69,4.69,0,0,0,282.51,120.81Z" style="fill:#455a64"></path><path d="M245.12,126.83l.08.09.26.25a3.64,3.64,0,0,0,.44.39,6.5,6.5,0,0,0,.65.47,10.26,10.26,0,0,0,4.82,1.61,13.12,13.12,0,0,0,7.35-1.55,22.92,22.92,0,0,0,7-6c1-1.28,1.94-2.61,2.89-3.83a15.62,15.62,0,0,1,3.09-3.14,8.11,8.11,0,0,1,3.63-1.53,5.86,5.86,0,0,1,1.78,0,6.25,6.25,0,0,1,1.56.55,6.83,6.83,0,0,1,2.2,1.8,6.76,6.76,0,0,1,1.06,1.88,7.78,7.78,0,0,1,.34,1.82s0,0,0-.12v-.36a5.72,5.72,0,0,0-.25-1.37,6.63,6.63,0,0,0-1-1.94,6.79,6.79,0,0,0-2.23-1.88,6.14,6.14,0,0,0-1.61-.58,5.69,5.69,0,0,0-1.85-.07,8.2,8.2,0,0,0-3.75,1.55,15.58,15.58,0,0,0-3.15,3.18c-1,1.22-1.86,2.55-2.89,3.82a23,23,0,0,1-6.91,6,13.24,13.24,0,0,1-7.22,1.58,10.52,10.52,0,0,1-4.77-1.51A18.43,18.43,0,0,1,245.12,126.83Z" style="fill:#455a64"></path><path d="M244.81,121.6a2,2,0,0,0,.37.35,10.27,10.27,0,0,0,1.14.8,12.25,12.25,0,0,0,1.85.92,13.49,13.49,0,0,0,2.44.69,13.2,13.2,0,0,0,2.52.2,11.82,11.82,0,0,0,2.06-.22,10.9,10.9,0,0,0,1.34-.36,1.58,1.58,0,0,0,.47-.2s-.7.19-1.85.37a14.4,14.4,0,0,1-2,.16,15.76,15.76,0,0,1-2.48-.21,15.34,15.34,0,0,1-2.39-.66,14,14,0,0,1-1.84-.86C245.41,122,244.84,121.56,244.81,121.6Z" style="fill:#455a64"></path><path d="M264,158.43a2.39,2.39,0,1,1-.44,0" style="fill:#ff9a6c"></path><path d="M263.23,162.8a2.53,2.53,0,0,0,1.35.21,1.83,1.83,0,0,0,1.22-.72,2.18,2.18,0,0,0,.39-1.69,2.37,2.37,0,0,0-1-1.44,2.52,2.52,0,0,0-1.4-.41,5.12,5.12,0,0,0-1.37.28s.09-.11.32-.22a2.56,2.56,0,0,1,1-.28,2.58,2.58,0,0,1,2.71,2,2.35,2.35,0,0,1-.46,1.92,2,2,0,0,1-1.42.77A1.52,1.52,0,0,1,263.23,162.8Z" style="fill:#263238"></path><path d="M123.57,404.89l-7.34,27.28s-30.19,1.7-32,6.61l52.39,16.13,13.18-42Z" style="fill:#455a64"></path><path d="M133.13,434.89a2.23,2.23,0,0,1,.73,2.89,2.15,2.15,0,0,1-2.87.75,2.36,2.36,0,0,1-.75-3.07,2.23,2.23,0,0,1,3.07-.45" style="fill:#e0e0e0"></path><path d="M136.58,454.91l1.16-4.29L87.08,436.76s-2.65.3-2.89,2Z" style="fill:#263238"></path><path d="M115.47,431.64c-.07.26,1.17.77,2.17,2s1.35,2.49,1.62,2.46.34-1.62-.91-3.07S115.48,431.39,115.47,431.64Z" style="fill:#fff"></path><path d="M109.27,432.22c-.13.23.84,1,1.38,2.36s.43,2.57.69,2.63.86-1.33.17-3S109.35,432,109.27,432.22Z" style="fill:#fff"></path><path d="M104.13,437.84c.21.12,1-1,.74-2.65s-1.25-2.53-1.43-2.35.34,1.16.5,2.48S103.88,437.73,104.13,437.84Z" style="fill:#fff"></path><path d="M117.83,425.61c0,.26,1.32.27,2.73.82s2.4,1.34,2.61,1.16-.61-1.42-2.28-2S117.76,425.37,117.83,425.61Z" style="fill:#fff"></path><path d="M366.86,363.05l17.3-20.25s26.13,10.85,29.69,7.42l-37.57-35.07-28.23,30.43Z" style="fill:#455a64"></path><path d="M371,333.61a2.14,2.14,0,0,1,.57-2.77,2,2,0,0,1,2.72.54,2.26,2.26,0,0,1-.62,2.92,2.09,2.09,0,0,1-2.77-.87" style="fill:#e0e0e0"></path><path d="M376.28,315.15l-2.72,3.18,37,32.44s2.35.82,3.26-.55Z" style="fill:#263238"></path><path d="M384.59,343.57c.16-.2-.68-1.14-1-2.58s-.12-2.67-.35-2.75-.95,1.24-.49,3S384.47,343.77,384.59,343.57Z" style="fill:#fff"></path><path d="M390.05,345.59c.2-.14-.3-1.19-.2-2.56s.68-2.37.49-2.53-1.27.78-1.36,2.48S389.88,345.77,390.05,345.59Z" style="fill:#fff"></path><path d="M396.67,342.91c-.13-.2-1.24.49-1.7,1.95s0,2.66.24,2.58.19-1.12.59-2.31S396.83,343.1,396.67,342.91Z" style="fill:#fff"></path><path d="M380.14,347.74c.08-.24-1-.77-2-1.81s-1.47-2.12-1.71-2.05-.08,1.45,1.08,2.66S380.1,348,380.14,347.74Z" style="fill:#fff"></path><path d="M228,326.35s67.64,81.88,81.26,85.1c22.29,5.28,70.69-59.46,70.69-59.46l-21.57-22.62-43.47,37.71-35.61-57.94Z" style="fill:#263238"></path><path d="M311.33,388.48a2.64,2.64,0,0,1-.26-.84,20.28,20.28,0,0,1-.42-2.34,29.12,29.12,0,0,1,.15-7.84,28.73,28.73,0,0,1,2.28-7.5,19.22,19.22,0,0,1,1.12-2.1,2.82,2.82,0,0,1,.5-.71c.08,0-.52,1.13-1.28,3a33.9,33.9,0,0,0-2.1,7.43,33.49,33.49,0,0,0-.3,7.72C311.18,387.24,311.41,388.46,311.33,388.48Z" style="fill:#455a64"></path><path d="M115.69,416s29-95.28,36.72-109.58c5.29-9.77,44.92-9.85,44.92-9.85l83.29.08A44.71,44.71,0,0,1,283.91,324c-2.38,11.49-13.3,19.7-23.39,21.93a43.14,43.14,0,0,1-15.34.44l-64.74-8.62a77,77,0,0,1-3.94,16c-3.38,9.85-29,77-29,77Z" style="fill:#263238"></path><g style="opacity:0.30000000000000004"><path d="M284.82,318.5a34.25,34.25,0,0,1-10.2,18.68,35.31,35.31,0,0,1-19.81,8.6l-8.67-.49c1.33.72,3.12,2.45,4.45,3.17a24,24,0,0,0,28.8-2C287.11,339.4,290,327.61,284.82,318.5Z"></path></g><path d="M285.3,316.8a2.55,2.55,0,0,1,0,.58c0,.38,0,.95-.14,1.67a30.1,30.1,0,0,1-1.37,6,32.36,32.36,0,0,1-31.13,22.18,29.18,29.18,0,0,1-6.14-.67c-.71-.13-1.25-.32-1.62-.41a2.1,2.1,0,0,1-.56-.19s.8.15,2.22.4a32.83,32.83,0,0,0,6.1.5,33.57,33.57,0,0,0,9-1.27A33.2,33.2,0,0,0,285,319C285.18,317.59,285.25,316.79,285.3,316.8Z" style="fill:#455a64"></path><path d="M171.71,321.7a12.11,12.11,0,0,1,1.95,2,35.52,35.52,0,0,1,6.43,11.94,10.94,10.94,0,0,1,.62,2.75,26,26,0,0,1-1-2.63,46.79,46.79,0,0,0-2.75-6.16,47.46,47.46,0,0,0-3.62-5.67A22,22,0,0,1,171.71,321.7Z" style="fill:#455a64"></path><path d="M328.69,275.21s-1.62,6.44-3.21,7.73c0,0-12.15,11.32-12.73,11.78s-2.44,1.19-3.3.58a2.83,2.83,0,0,1-.83-2.07s-3,1.59-4.17.74a1.62,1.62,0,0,1-.65-2s-2.27.88-3.5-.57a4.43,4.43,0,0,1-.75-3.52s-2,1.24-3,0a6.84,6.84,0,0,1-1-3.47h0l1.87-2.64s5.09-5.66,6.64-7.21,7.74-3.13,10.23-3.65l6.28-7.5Z" style="fill:#ffbf9d"></path><path d="M325.48,282.94,318,266.88s8.75-11.65,13-19.27,2.55-7.1,2.55-7.1a72.94,72.94,0,0,0-12.55-6c-7.36-2.7-16.34-8.38-16.34-8.38s-12.72-6.24-14.84-10.29-2.84-13.26,1.77-16.6a13.23,13.23,0,0,1,4.15-1.86,20.81,20.81,0,0,1,15.48,1.89c7.5,4.05,20.19,10.91,22,11.85,0,0,21.26,12.93,23.6,15.06,5.7,5.2,7.61,11.4,1.4,20.66C352.32,255.67,325.48,282.94,325.48,282.94Z" style="fill:#ffbf9d"></path><path d="M333.44,242.26a5.21,5.21,0,0,1,.59-2,13.92,13.92,0,0,1,7.05-7.07,5.29,5.29,0,0,1,2-.6,17.56,17.56,0,0,0-9.65,9.69Z" style="fill:#ff9a6c"></path><path d="M246,186.75c-1.24.64-15.89,22.14-18.32,25.93S218,279.29,218,279.29l-1.54,17.86,70.28,4a3.83,3.83,0,0,0,4.11-4.93l-4.47-14.62a24.28,24.28,0,0,1-.13-13.8l12.11-42.41,13.72-8.4-20.16-27-9.38-1.47Z" style="fill:#30C2EC"></path><path d="M328.79,205.31l-19.72,26.86s-28.56-17-29.58-23.59c-.13-.8-.22-1.62-.3-2.46a14.86,14.86,0,0,1,15.19-16.32h.24C302.59,190.23,328.79,205.31,328.79,205.31Z" style="fill:#30C2EC"></path><path d="M210.43,227l-6-30.31s31.92-10.76,39.22-10.19a33.54,33.54,0,0,1,12.32,3.3l-22.43,30.45Z" style="fill:#30C2EC"></path><path d="M230.14,198.47a.63.63,0,0,1,0,.22c0,.17,0,.38-.07.63q-.13.88-.36,2.4c-.36,2.13-.86,5.13-1.47,8.81-1.25,7.43-3,17.7-4.75,29.06s-3.22,21.67-4.16,29.15c-.45,3.74-.83,6.77-1.05,8.86-.12,1-.21,1.82-.28,2.41a4.51,4.51,0,0,1-.14.84,6,6,0,0,1,0-.85l.19-2.42c.16-2.1.48-5.13.88-8.88.85-7.5,2.23-17.82,4-29.19s3.55-21.63,4.9-29c.68-3.67,1.23-6.65,1.63-8.77.19-1,.34-1.8.46-2.39S230.13,198.47,230.14,198.47Z" style="fill:#263238"></path><path d="M304.41,218.9c0,.09-1.11-.28-2.9-.5a17.85,17.85,0,0,0-3.17-.08,19.76,19.76,0,0,0-3.8.67,19.24,19.24,0,0,0-3.58,1.48,17,17,0,0,0-2.62,1.77c-1.4,1.14-2.11,2-2.18,2s.13-.26.44-.67a11.77,11.77,0,0,1,1.5-1.59,15.73,15.73,0,0,1,2.63-1.9,18.32,18.32,0,0,1,3.66-1.56,18.09,18.09,0,0,1,3.93-.65,15.33,15.33,0,0,1,3.24.2,10.93,10.93,0,0,1,2.12.53C304.16,218.75,304.42,218.86,304.41,218.9Z" style="fill:#263238"></path><path d="M281.47,218.16a5.88,5.88,0,0,1-.7-1.19,34.23,34.23,0,0,1-1.56-3.46,27.17,27.17,0,0,1-1.46-5.45,19.47,19.47,0,0,1,.14-6.91,14.57,14.57,0,0,1,2.89-6.28,12.52,12.52,0,0,1,4.46-3.47,10.27,10.27,0,0,1,3.69-.94,8.36,8.36,0,0,1,1,0c.24,0,.36,0,.36.06a12,12,0,0,0-9.17,4.64,14.52,14.52,0,0,0-2.76,6.09,22.76,22.76,0,0,0,1.16,12.12c.53,1.5,1,2.68,1.39,3.5A10.33,10.33,0,0,1,281.47,218.16Z" style="fill:#263238"></path><path d="M266.73,264.32a12.16,12.16,0,0,1-1.51.9c-1,.55-2.42,1.32-4.2,2.25-3.58,1.88-8.55,4.38-14.12,7s-10.68,4.85-14.4,6.41c-1.86.77-3.37,1.38-4.43,1.79a9.82,9.82,0,0,1-1.65.58,13.43,13.43,0,0,1,1.57-.77l4.36-1.94c3.68-1.64,8.76-3.92,14.32-6.54s10.57-5.06,14.18-6.84l4.28-2.11A9.18,9.18,0,0,1,266.73,264.32Z" style="fill:#263238"></path><path d="M177.36,172.47S157.8,215,159.12,222.11c1.43,7.72,6.1,10,15.22,8.79s35.06-9.1,35.06-9.1l-4.76-24-23.58,6.84,10.41-31.37Z" style="fill:#ffbf9d"></path><path d="M179.12,222.41c-.19-.08,1.68-3.75,2.24-8.69s-.35-8.93-.15-9a8.44,8.44,0,0,1,.66,2.58,24.45,24.45,0,0,1-1.51,12.7A8.67,8.67,0,0,1,179.12,222.41Z" style="fill:#ff9a6c"></path><path d="M208.47,142.58c-.07.17-2.37-.63-5.15-1.77s-5-2.2-4.91-2.36,2.37.63,5.15,1.77S208.53,142.42,208.47,142.58Z" style="fill:#455a64"></path><path d="M198.33,158.08c-1.33-.15-4.69,1.58-7.52,5l-.15.15c-2,2.3-3.29-4.73-3.44-7.33a2.68,2.68,0,0,0-3.48-2.33l-8.85,3.47-1.38,0c-1.29.39-2.08,3.1-1.84,4.39L174,173.46c.67,2.69,2,3.57,3.81,5.64l12.89-3.41c.33-1.06,1.6-6.24,2.16-7.67A11.68,11.68,0,0,1,195,164.5a22.15,22.15,0,0,1,3.31-3.21c.1,0,.2-.13.29-.17a1.64,1.64,0,0,0-.22-3Z" style="fill:#ffbf9d"></path><path d="M191.91,130.43s-8.7-1.3-21.55-12.15-19.58-26-21-25.84-8.12-2.38-18.52,25.49-5.15,33.77-2.71,33.55,18.66-6.1,29.07-5.66,24.08,4.92,24.08,4.92Z" style="fill:#30C2EC"></path><path d="M209.85,144.58l-2.39,5.47-1.06,2.45a6.83,6.83,0,0,1-8.69,3.68L180,151.34l8.45-23.89,17.93,8A6.93,6.93,0,0,1,209.85,144.58Z" style="fill:#263238"></path><path d="M202.37,151.2l-6.58,11.14-2.86-1-20,14.36-4.64-10.85s11.56-4.14,13.91-8.05,0-5,0-5l5.69-5.72Z" style="fill:#263238"></path><path d="M131.76,118.62c-5.48,15-7.29,28.06-4,29.28S138.08,138,143.56,123s7.29-28.06,4-29.27S137.24,103.66,131.76,118.62Z" style="fill:#263238"></path><path d="M207.19,146.19c-.06.17-2.6-.63-5.68-1.77s-5.51-2.21-5.45-2.37,2.6.62,5.67,1.77S207.25,146,207.19,146.19Z" style="fill:#455a64"></path><path d="M205.52,150c0,.09-.62,0-1.58-.24-.47-.11-1-.25-1.67-.42s-1.29-.46-2-.72c-2.8-1.08-5-2.17-4.9-2.33s2.35.66,5.13,1.72c.69.26,1.34.56,2,.76s1.15.39,1.61.56C205,149.66,205.54,149.91,205.52,150Z" style="fill:#455a64"></path><path d="M144.77,114.45s-7.73-4.1-11.09,6.28,4.57,11.49,4.57,11.49A67.62,67.62,0,0,0,144.77,114.45Z" style="fill:#fafafa"></path><path d="M151.82,101.86a11.3,11.3,0,0,1-.16,2c-.14,1.25-.35,3.06-.67,5.29l-.78,3.61c-.14.65-.29,1.32-.44,2-.07.35-.15.7-.23,1s-.21.7-.31,1.06c-.44,1.43-.9,2.92-1.37,4.47l-.36,1.18c-.12.39-.3.77-.45,1.16l-.94,2.37-.94,2.37c-.17.39-.3.78-.48,1.15l-.55,1.1-2.08,4.19c-.17.33-.32.67-.5,1s-.38.61-.56.92l-1.06,1.76L138,141.64c-1.29,1.83-2.39,3.28-3.14,4.29a9.76,9.76,0,0,1-1.23,1.51,14.23,14.23,0,0,1,1-1.66l3-4.41,1.84-3.16c.33-.57.67-1.16,1-1.76.17-.31.35-.61.53-.92s.32-.65.49-1l2-4.17c.17-.37.35-.73.53-1.1s.31-.76.47-1.14l.94-2.36.94-2.35c.14-.39.32-.76.44-1.15s.25-.78.37-1.17l1.39-4.43c.11-.36.23-.7.33-1l.24-1c.16-.68.31-1.35.47-2,.3-1.28.58-2.48.84-3.57.37-2.19.67-4,.88-5.24A12.53,12.53,0,0,1,151.82,101.86Z" style="fill:#263238"></path><path d="M181.46,150.48A2.1,2.1,0,0,0,180.2,153c.56,2,1.49,5.24,2.21,7.2a5.5,5.5,0,0,0,.93,1.76,1.76,1.76,0,0,0,1.74.6,1.9,1.9,0,0,0,1.16-1.61,5.61,5.61,0,0,0-.24-2.11c-.47-1.91-1.32-4.77-2.05-7.1a1.93,1.93,0,0,0-2.49-1.29Z" style="fill:#ffbf9d"></path><path d="M178.45,154a2.1,2.1,0,0,0-1.26,2.55c.57,2,1.5,5.25,2.22,7.2a5.13,5.13,0,0,0,.93,1.76,1.74,1.74,0,0,0,1.73.61,1.93,1.93,0,0,0,1.17-1.62,5.61,5.61,0,0,0-.24-2.11c-.48-1.9-1.32-4.76-2.05-7.09a1.94,1.94,0,0,0-2.5-1.3Z" style="fill:#ffbf9d"></path><path d="M175.64,156.13a1.8,1.8,0,0,0-1.14,2.21c.52,1.76,1.37,4.54,2,6.24a4.52,4.52,0,0,0,.84,1.52,1.59,1.59,0,0,0,1.57.53,1.63,1.63,0,0,0,1.05-1.4,4.52,4.52,0,0,0-.22-1.82c-.44-1.65-1.21-4.13-1.88-6.15a1.77,1.77,0,0,0-2.25-1.13Z" style="fill:#ffbf9d"></path><path d="M172.08,156.68a1.81,1.81,0,0,0-1.14,2.22c.52,1.78,1.37,4.57,2,6.27a4.59,4.59,0,0,0,.85,1.53,1.61,1.61,0,0,0,1.58.53,1.66,1.66,0,0,0,1.06-1.4,4.81,4.81,0,0,0-.23-1.84c-.44-1.66-1.21-4.14-1.88-6.17a1.79,1.79,0,0,0-2.27-1.14Z" style="fill:#ffbf9d"></path><path d="M183.15,162.05c-.19.07-.92-1.55-1.62-3.61s-1.12-3.8-.92-3.86.92,1.55,1.62,3.61S183.34,162,183.15,162.05Z" style="fill:#ff9a6c"></path><path d="M179.93,164.91c-.19.06-1-1.81-1.71-4.17s-1.21-4.32-1-4.39,1,1.8,1.72,4.16S180.13,164.85,179.93,164.91Z" style="fill:#ff9a6c"></path><path d="M176.76,165.1c-.18.09-1.06-1.49-1.77-3.6s-1-3.89-.79-3.94.78,1.63,1.49,3.7S177,165,176.76,165.1Z" style="fill:#ff9a6c"></path><path d="M110.69,138.24c0,.14-6.92,1.86-15.53,3.85s-15.62,3.47-15.66,3.33,6.93-1.86,15.54-3.84S110.66,138.1,110.69,138.24Z" style="fill:#263238"></path><path d="M116.45,122.45c0,.14-11.71.2-26.16.12s-26.17-.26-26.17-.41,11.71-.19,26.17-.11S116.46,122.31,116.45,122.45Z" style="fill:#263238"></path><path d="M120.1,113.52c-.07.12-8.79-4-19.48-9.25S81.3,94.68,81.36,94.55s8.79,4,19.49,9.25S120.16,113.39,120.1,113.52Z" style="fill:#263238"></path><path d="M128.88,104.87c-.12.08-6.28-9.05-13.75-20.4s-13.44-20.62-13.32-20.7,6.28,9.06,13.75,20.41S129,104.79,128.88,104.87Z" style="fill:#263238"></path></g></svg>
