<svg width="254" height="11" viewBox="0 0 254 11" fill="none" xmlns="http://www.w3.org/2000/svg">
<path d="M55.0716 2.23473C79.1039 1.91256 103.149 1.70545 127.195 1.6134C151.24 1.52135 175.063 1.55203 198.991 1.69777C212.583 1.78215 226.189 1.89722 239.782 2.05063L241.626 0.47811C210.595 0.792615 179.577 1.18383 148.558 1.65175C117.54 2.11967 86.5216 2.6643 55.5033 3.29331C38.0907 3.64617 20.6911 4.01437 3.27848 4.41326C2.25806 4.43627 0.727419 4.58969 0.151794 5.17267C-0.384583 5.7173 0.609677 6.00112 1.43387 5.98578C33.7604 5.50252 66.1131 5.45649 98.4527 5.85538C130.792 6.25426 163.106 7.10572 195.38 8.39443C213.512 9.11549 231.631 9.98229 249.724 10.9872C250.705 11.0409 252.328 10.757 252.851 10.2278C253.427 9.65245 252.354 9.45301 251.569 9.41465C219.373 7.62734 187.099 6.27727 154.799 5.37211C122.498 4.46695 90.1454 4.01437 57.8058 4.0067C39.6344 4.0067 21.463 4.13711 3.29156 4.41326L1.44695 5.98578C32.4522 5.27239 63.4705 4.64338 94.4888 4.08341C125.507 3.53111 156.525 3.04784 187.544 2.64896C204.956 2.42651 222.382 2.21939 239.795 2.04296C240.815 2.03529 242.359 1.85886 242.921 1.28355C243.484 0.708235 242.45 0.47811 241.639 0.470439C217.581 0.20963 193.548 0.048542 169.503 0.0101877C145.458 -0.0281665 121.635 0.0408711 97.707 0.232642C84.1145 0.340034 70.5088 0.485781 56.9162 0.669881C55.8958 0.685223 54.3521 0.853981 53.7895 1.4293C53.2531 1.97393 54.2474 2.25775 55.0716 2.24241V2.23473Z" fill="#F0C933"/>
</svg>
